inDegrees=no
num_controls=7
num_derivatives=13
num_iterations=111
num_multipliers=7
num_parameters=0
num_slacks=7
num_states=26
objective=0.509987
objective_accelerations=0.038648
objective_balance=0.003183
objective_effort=0.029076
objective_height=0.326337
objective_ligament=0.112743
solver_duration=1365.248058
status=Solve_Succeeded
success=true
DataType=double
version=3
OpenSimVersion=4.5
endheader
time	/jointset/ground_pelvis/pelvis_tilt/value	/jointset/ground_pelvis/pelvis_tx/value	/jointset/ground_pelvis/pelvis_ty/value	/jointset/hip_l/hip_flexion_l/value	/jointset/hip_l/hip_adduction_l/value	/jointset/hip_l/hip_rotation_l/value	/jointset/back/lumbar_extension/value	/jointset/patellofemoral_l/patellar_flexion_l/value	/jointset/knee_l/knee_flexion_l/value	/jointset/knee_l/knee_adduction_l/value	/jointset/knee_l/knee_rotation_l/value	/jointset/ankle_l/ankle_angle_l/value	/jointset/subtalar_l/subtalar_angle_l/value	/jointset/ground_pelvis/pelvis_tilt/speed	/jointset/ground_pelvis/pelvis_tx/speed	/jointset/ground_pelvis/pelvis_ty/speed	/jointset/hip_l/hip_flexion_l/speed	/jointset/hip_l/hip_adduction_l/speed	/jointset/hip_l/hip_rotation_l/speed	/jointset/back/lumbar_extension/speed	/jointset/patellofemoral_l/patellar_flexion_l/speed	/jointset/knee_l/knee_flexion_l/speed	/jointset/knee_l/knee_adduction_l/speed	/jointset/knee_l/knee_rotation_l/speed	/jointset/ankle_l/ankle_angle_l/speed	/jointset/subtalar_l/subtalar_angle_l/speed	/forceset/tau_hip_flexion_l	/forceset/tau_hip_adduction_l	/forceset/tau_hip_rotation_l	/forceset/tau_knee_flexion_l	/forceset/tau_ankle_angle_l	/forceset/tau_subtalar_angle_l	/forceset/tau_lumbar_extension	lambda_cid13_p0	lambda_cid13_p1	lambda_cid13_p2	lambda_cid13_p3	lambda_cid13_p4	lambda_cid13_p5	lambda_cid14_p0	/jointset/ground_pelvis/pelvis_tilt/accel	/jointset/ground_pelvis/pelvis_tx/accel	/jointset/ground_pelvis/pelvis_ty/accel	/jointset/hip_l/hip_flexion_l/accel	/jointset/hip_l/hip_adduction_l/accel	/jointset/hip_l/hip_rotation_l/accel	/jointset/back/lumbar_extension/accel	/jointset/patellofemoral_l/patellar_flexion_l/accel	/jointset/knee_l/knee_flexion_l/accel	/jointset/knee_l/knee_adduction_l/accel	/jointset/knee_l/knee_rotation_l/accel	/jointset/ankle_l/ankle_angle_l/accel	/jointset/subtalar_l/subtalar_angle_l/accel	gamma_cid13_p0	gamma_cid13_p1	gamma_cid13_p2	gamma_cid13_p3	gamma_cid13_p4	gamma_cid13_p5	gamma_cid14_p0
0.5	-0.1021709364233136	-0.03852648733631599	0.8332615892856491	0.8434735589385938	-0.3116532145608882	-0.1398673884927993	-0.773766972232557	0.7822793693119078	0.7822793693117217	-0.0778459956691111	-0.1717669675429049	0.1012125667134612	0.01726997154819113	-0.1927940328471241	-0.1483667984757676	-0.3322907782914069	1.432765464601562	-0.1118403062521491	0.5497104466638704	-0.8721617574635236	1.536445391850003	1.536445391850003	-0.01091937199170768	0.01447587739723755	0.3665334539229068	0.001083061097104387	-0.2703616834122481	0.07887912490506674	-0.0076388645152687	-0.1931534252791345	0.0861054192311853	0.008111524537833217	0.3202513923953216	-17.38172396096424	-1.122111970364202	0.458695387189905	-5.203635065520229	-693.6973069592999	-34.54762030277247	-15.05516498251325	0.3837282439043917	0.5736216653646958	-0.2362394112889437	-1.009541718215039	0.4159341218771326	-0.05334672829296722	1.556094355456676	-0.5176300972490726	-0.5176300972490843	-0.05266042099100625	-0.004733069789189684	0.2372459984560549	0.5236038837496573	-1.785071198204471e-07	-4.822555935301355e-07	7.264965467808955e-07	1.759067597880365e-08	-1.848749701781458e-07	-1.637790713848297e-07	-1.580418587969203e-07
0.51	-0.1040795248820665	-0.03998137870355879	0.8299277136027562	0.8577477673659535	-0.3127514121882209	-0.1343739639729991	-0.7824094153291516	0.7976142466427357	0.7976142466428029	-0.07795942013603667	-0.1716231981987949	0.1048882545475093	0.01730584675629599	-0.1889098738724223	-0.1426034416071839	-0.3344001011303421	1.421815770994568	-0.1077920059020004	0.5488453083974039	-0.8561841612926262	1.530196817328971	1.530196817328975	-0.01176522526718489	0.0142533635054561	0.3684901491751146	0.006066401284660104	-0.2775625391039205	0.07985680144465261	-0.007665635177561221	-0.1950264901119236	0.08368377655945296	0.008637362242555608	0.3271857556149759	-18.40390175681991	-1.101041949641926	0.3748473645501048	-4.81450836209738	-698.2103513602973	-34.3443255139719	-14.48782427413749	0.3928104274988225	0.578901605754137	-0.1856763885052129	-1.176771375586176	0.4003154749752534	-0.1226178401786892	1.639997332281949	-0.7284283959055072	-0.7284283959049525	-0.1005585959138937	-0.03455820617368341	0.1577670474370196	0.4818517560970065	-1.766586919824799e-07	-4.428926540793306e-07	7.24837080391845e-07	2.317360710099152e-08	-1.801464407785785e-07	-1.432221217107585e-07	-1.541701270723883e-07
0.52	-0.1059488616104373	-0.04137839472048582	0.8265752651578127	0.8719046612185012	-0.3138089193154068	-0.1288930949287143	-0.7908878014471616	0.8128766467750722	0.8128766467754013	-0.07808130529870382	-0.1714823635250661	0.108580086485845	0.01739078590024266	-0.1849436867678735	-0.1367917284126148	-0.3360053307015614	1.409302549641804	-0.1037022062161548	0.5471993515567255	-0.839350361746697	1.521949952152932	1.52194995215294	-0.01261151114618467	0.01388894332163781	0.3697622747806782	0.01089584826575944	-0.2847633947955946	0.08083447798419864	-0.00769240583990987	-0.1968995549447178	0.08126213388770673	0.009163199947229946	0.3341201188346384	-19.42532772907757	-1.081234102708424	0.2924927755252562	-4.475040809692548	-702.7430836905691	-34.17715202858621	-13.91472691601868	0.4001338698738592	0.5832929305616372	-0.1354207577457837	-1.322247267368937	0.4242339890165291	-0.2095104431352456	1.727335030462974	-0.9172882282503334	-0.9172882282502879	-0.05274694169555955	-0.03311432819658228	0.1003320691270535	0.4928252424583015	-1.749030951756361e-07	-3.997302984514956e-07	7.221591056188854e-07	3.055905246810176e-08	-1.780001512427277e-07	-1.207926532499606e-07	-1.496506540568941e-07
0.53	-0.107778334100069	-0.04271712322676488	0.823209445910757	0.8859283677832606	-0.3148254699525065	-0.1234326344868008	-0.7991935846655219	0.8280458759298424	0.8280458759300912	-0.07821201556732826	-0.1713459045198296	0.1122808422410853	0.01752294573976228	-0.1809587060896566	-0.1309530890018403	-0.3370575138817504	1.395151618747169	-0.0996209956561456	0.5447465117546758	-0.8216650346444936	1.511488336979681	1.511488336979721	-0.01356902159501665	0.01336306240304524	0.3702350524238685	0.01547340136157724	-0.2918488402584778	0.08168600757603794	-0.007714549517153097	-0.1993182823691463	0.07908708963716714	0.009559879761451619	0.3410443386271888	-20.41548218632397	-1.00384289014709	0.1930005769031625	-4.003352113628579	-707.8410803193716	-33.99786227839606	-13.33686024675832	0.396478914051572	0.5842889099278911	-0.07500174861350628	-1.504608574370297	0.398049164384593	-0.2852425913811401	1.810318642190385	-1.171699979553814	-1.171699979548887	-0.1230688457377232	-0.06814952617493017	-0.002340104926810509	0.4307889980888825	-1.715708898061156e-07	-3.475568297937262e-07	7.176049506337425e-07	3.760315186946763e-08	-1.712496892475778e-07	-9.702220206379263e-08	-1.439430468203039e-07
